<?xml version="1.0" encoding="utf-8"?>
<!-- Generator: Adobe Illustrator 22.0.0, SVG Export Plug-In . SVG Version: 6.00 Build 0)  -->
<svg version="1.1" id="레이어_1" xmlns="http://www.w3.org/2000/svg" xmlns:xlink="http://www.w3.org/1999/xlink" x="0px"
	 y="0px" viewBox="0 0 950 327" style="enable-background:new 0 0 950 327;" xml:space="preserve">
<style type="text/css">
	.st0{fill:#FCB829;}
</style>
<g>
	<path class="st0" d="M288.3,124.2c-55.6,0-100.7,45.1-100.7,100.7s45.1,100.7,100.7,100.7s100.7-45.1,100.7-100.7
		S344,124.2,288.3,124.2z M288.3,284c-32.7,0-59.1-26.5-59.1-59.1c0-32.7,26.5-59.1,59.1-59.1s59.1,26.5,59.1,59.1
		C347.5,257.6,321,284,288.3,284z"/>
	<path class="st0" d="M162.7,189.8c15.7-3.7,16.6-17.6,16.6-17.6c0.9-12-7.4-18.6-7.4-18.6c-0.6-0.5-0.9-0.8-0.9-0.8l0.2,0
		c-18.2-17.7-43-28.7-70.4-28.7C45.1,124.2,0,169.3,0,224.9s45.1,100.7,100.7,100.7c27.4,0,52.2-10.9,70.4-28.7l-0.2,0
		c0,0,0.4-0.3,0.9-0.8c0,0,8.3-6.6,7.4-18.6c0,0-0.9-13.9-16.6-17.6c0,0-9.2-1.8-19.4,6.5c0,0-7.4,6.5-9.2,7.4l0-0.1
		c-9.5,6.5-20.9,10.3-33.3,10.3c-32.7,0-59.1-26.5-59.1-59.1s26.5-59.1,59.1-59.1c12.4,0,23.8,3.8,33.3,10.3l0-0.1
		c1.8,0.9,9.2,7.4,9.2,7.4C153.4,191.6,162.7,189.8,162.7,189.8z"/>
	<path class="st0" d="M561.9,189.8c15.7-3.7,16.6-17.6,16.6-17.6c0.9-12-7.4-18.6-7.4-18.6c-0.6-0.5-0.9-0.8-0.9-0.8l0.2,0
		c-18.2-17.7-43-28.7-70.4-28.7c-55.6,0-100.7,45.1-100.7,100.7S444.4,325.6,500,325.6c27.4,0,52.2-10.9,70.4-28.7l-0.2,0
		c0,0,0.4-0.3,0.9-0.8c0,0,8.3-6.6,7.4-18.6c0,0-0.9-13.9-16.6-17.6c0,0-9.2-1.8-19.4,6.5c0,0-7.4,6.5-9.2,7.4l0-0.1
		c-9.5,6.5-20.9,10.3-33.3,10.3c-32.7,0-59.1-26.5-59.1-59.1s26.5-59.1,59.1-59.1c12.4,0,23.8,3.8,33.3,10.3l0-0.1
		c1.8,0.9,9.2,7.4,9.2,7.4C552.7,191.6,561.9,189.8,561.9,189.8z"/>
	<path class="st0" d="M944.5,165.7V15.1c-0.9-9.2-8.3-12.9-8.3-12.9c-5.5-4.6-17.6-1.8-17.6-1.8L765.2,39.1
		c-12,2.8-12.9,7.4-12.9,7.4c-3.7,3.7-2.8,13.9-2.8,13.9l4.4,88.7c-17.7-15.5-40.9-24.9-66.4-24.9c-55.6,0-100.7,45.1-100.7,100.7
		S632,325.6,687.6,325.6s100.7-45.1,100.7-100.7c0-20.3-6-39.3-16.4-55.1l159.7,10.8C945.4,177.8,944.5,165.7,944.5,165.7z
		 M687.6,284c-32.7,0-59.1-26.5-59.1-59.1c0-32.7,26.5-59.1,59.1-59.1c32.7,0,59.1,26.5,59.1,59.1C746.7,257.6,720.3,284,687.6,284z
		 M925.1,53c0,0-3.7,3.7-9.2,8.3c0,0-3.7,1.8-7.4,10.2c0,0-24,60.1-27.7,69.3c0,0-2.8,10.2-12.9,10.2c0,0-4.6,0.9-12.9-15.7
		l-25-49.9c0,0,0-3.7-8.3-1.8l-14.8,1.8v37.9c0,0,2.8,6.5,10.2,1.8c0,0,7.4-6.5,9.2-0.9c0,0,3.7,16.6-13.9,24c0,0-14.8,6.5-24-3.7
		c0,0-2.8-2.8-3.7-6.5V91.8h-14.8v-5.5c0,0,25-32.3,26.8-34.2c0,0,2.8-3.7,8.3-1.8v16.6c0,0,42.5-8.3,49-10.2c0,0,15.7-5.5,15.7,7.4
		c0,0,0.9,3.7-2.8,6.5c0,0-2.8,0.9-0.9,5.5c0,0,4.6,16.6,8.3,16.6c0,0,1.8,1.8,5.5-3.7c0,0,5.5-6.5,5.5-17.6c0,0,0-6.5-2.8-9.2
		c0,0-7.4-7.4,2.8-12.9c0,0,28.6-14.8,41.6-7.4C927,41.9,931.6,46.5,925.1,53z"/>
</g>
</svg>
