<?xml version="1.0" standalone="no"?>
<!DOCTYPE svg PUBLIC "-//W3C//DTD SVG 1.1//EN" "http://www.w3.org/Graphics/SVG/1.1/DTD/svg11.dtd">
<svg xmlns="http://www.w3.org/2000/svg">
<metadata>Copyright (C) 2017 by original authors @ fontello.com</metadata>
<defs>
<font id="fontello" horiz-adv-x="1000" >
<font-face font-family="fontello" font-weight="400" font-stretch="normal" units-per-em="1000" ascent="850" descent="-150" />
<missing-glyph horiz-adv-x="1000" />
<glyph glyph-name="instagram" unicode="&#xe800;" d="M760 54v362h-75q11-35 11-73 0-71-36-130t-97-94-134-35q-110 0-188 76t-78 183q0 38 11 73h-79v-362q0-14 10-24t25-10h596q14 0 24 10t10 24z m-158 298q0 69-51 118t-122 49q-71 0-121-49t-51-118 51-118 121-49q72 0 122 49t51 118z m158 201v92q0 15-11 27t-27 11h-98q-16 0-27-11t-11-27v-92q0-17 11-28t27-11h98q16 0 27 11t11 28z m97 116v-638q0-45-32-77t-78-33h-637q-45 0-78 33t-32 77v638q0 45 32 77t78 33h637q45 0 78-33t32-77z" horiz-adv-x="857.1" />

<glyph glyph-name="facebook" unicode="&#xe801;" d="M535 843v-147h-87q-48 0-65-20t-17-60v-106h164l-22-165h-142v-424h-171v424h-142v165h142v122q0 104 58 161t155 57q82 0 127-7z" horiz-adv-x="571.4" />

<glyph glyph-name="people" unicode="&#xe802;" d="M1000 183c0-11-9-20-21-20h-45l-38-233c-2-10-11-18-21-18h-125c-10 0-19 8-21 18l-20 146c-2 11 6 22 17 24 12 1 22-7 24-18l18-128h89l39 233c0 1 1 1 1 2 0 1 1 3 2 4 0 1 1 2 2 3 1 1 1 2 2 3 1 1 3 2 4 2 1 1 2 1 3 2 2 0 3 1 4 1 1 0 2 0 3 0h41v111c0 0 1 0 1 1 0 0-1 0-1 1 0 86-38 179-145 179-12 0-21 9-21 21s9 21 21 21c113 0 187-87 187-221 0-1 0-1 0-1 0-1 0-1 0-1v-132z m-187 355c-69 0-125 56-125 125 0 68 56 125 125 125 68 0 125-57 125-125 0-69-57-125-125-125z m0 208c-46 0-84-37-84-83s38-84 84-84c45 0 83 38 83 84s-38 83-83 83z m-105-354c0-1 0-1 0-1 0-1 0-1 0-1v-186c0-11-9-21-20-21h-65l-40-315c-1-10-10-18-20-18h-125c-11 0-20 8-21 18l-40 315h-64c-12 0-21 10-21 21v186c0 0 0 0 0 1 0 0 0 0 0 1 0 115 93 208 208 208-69 0-125 56-125 125 0 69 56 125 125 125s125-56 125-125c0-69-56-125-125-125 115 0 208-93 208-208z m-125 333c0 46-37 83-83 83-46 0-83-37-83-83 0-46 37-83 83-83 46 0 83 37 83 83z m-83-167c-92 0-167-74-167-166 0-1 0-1 0-1 0-1 0-1 0-1v-165h63c1 0 2 0 3-1 1 0 2 0 4 0 1-1 2-1 3-2 1-1 2-1 3-2 2-1 2-2 3-3 1-1 2-2 2-3 1-2 1-3 2-5 0 0 0-1 1-2l39-315h88l40 315c0 1 0 2 0 2 1 2 1 3 2 4 0 2 1 3 2 4 1 1 2 2 3 3 1 1 2 1 3 2 1 1 2 1 3 2 2 0 3 0 4 1 1 0 2 0 3 0h63v165c0 0 0 0 0 1 0 0 0 0 0 1 0 92-75 166-167 166z m-312-20c-69 0-125 56-125 125 0 68 56 125 125 125 68 0 125-57 125-125 0-69-57-125-125-125z m0 208c-46 0-84-37-84-83s38-84 84-84c46 0 83 38 83 84s-37 83-83 83z m0-208c11 0 20-10 20-21s-9-21-20-21c-108 0-146-93-146-179 0-1 0-1 0-1 0-1 0-1 0-1v-111h41c1 0 2 0 3 0 1 0 3-1 4-1 1 0 2-1 3-2 2 0 3-1 4-2 1-1 2-2 2-3 1-1 2-2 3-3s1-3 1-4c0-1 1-1 1-2l39-233h89l18 128c2 11 13 19 24 18 11-2 19-13 18-24l-21-146c-2-10-11-18-21-18h-125c-10 0-19 8-20 18l-39 233h-45c-12 0-21 9-21 20v132c0 0 0 0 0 1 0 0 0 0 0 1 0 134 74 221 188 221z" horiz-adv-x="1000" />

<glyph glyph-name="rainy" unicode="&#xe803;" d="M479 6h-266c-118 0-213 96-213 214 0 87 51 164 129 197-1 10-1 19-1 29 0 171 138 310 308 310 126 0 238-77 285-193 154 2 279-124 279-278 0-42-9-84-27-121-4-10-17-15-27-10-11 5-15 17-10 28 15 31 22 67 22 103 0 130-105 236-234 236-5 0-10 0-14 0-10-1-19 4-22 14-38 107-139 180-252 180-147 0-266-121-266-269 0-13 1-25 3-39 1-10-5-20-14-23-70-24-117-89-117-164 0-95 76-172 171-172h266c12 0 21-9 21-21s-9-21-21-21z m250-83c-80 0-146 68-146 152 0 103 125 259 130 265 4 5 10 8 16 8h0c6 0 12-3 16-8 6-6 130-161 130-265 0-84-65-152-146-152z m0 370c-39-53-104-154-104-218 0-61 47-110 104-110s104 49 104 110c0 64-65 165-104 218z" horiz-adv-x="1000" />

<glyph glyph-name="sun" unicode="&#xe804;" d="M979 329h-208c-12 0-21 10-21 21 0 12 9 21 21 21h208c12 0 21-9 21-21 0-11-9-21-21-21z m-235 246c-4-4-9-6-15-6s-10 2-14 6c-9 8-9 21 0 29l125 125c8 9 21 9 29 0 8-8 8-21 0-29l-125-125z m0-429l125-125c8-8 8-21 0-30-4-4-9-6-15-6s-10 2-15 6l-125 126c-8 8-8 21 0 29 9 8 22 8 30 0z m-244 27c-103 0-187 84-187 188s84 187 187 187 188-84 188-187-85-188-188-188z m0 333c-80 0-146-65-146-145 0-81 66-146 146-146s146 65 146 146c0 80-66 145-146 145z m0 94c-11 0-21 9-21 21v208c0 12 10 21 21 21 12 0 21-9 21-21v-208c0-12-9-21-21-21z m-339-609c-4-4-10-6-15-6-5 0-11 2-15 6-8 9-8 22 0 30l125 125c8 8 21 8 30 0s8-21 0-29l-125-126z m110 578c-5 0-11 2-15 6l-125 125c-8 8-8 21 0 29 8 9 21 9 30 0l125-125c8-8 8-21 0-29-4-4-10-6-15-6z m-21-219c0-11-9-21-21-21h-208c-12 0-21 10-21 21 0 12 9 21 21 21h208c12 0 21-9 21-21z m250-250c12 0 21-9 21-21v-208c0-12-9-21-21-21-11 0-21 9-21 21v208c0 12 10 21 21 21z" horiz-adv-x="1000" />

<glyph glyph-name="teabag" unicode="&#xe805;" d="M792 308h-44c-21-187-180-333-373-333-207 0-375 168-375 375 0 1 1 3 1 4 0 1-1 3-1 4v159c0 23 19 41 42 41h656 10 84c69 0 125-56 125-125 0-69-56-125-125-125z m-542 122l-84-46v-159h167v159l-83 46z m458-72v159h-10-427l0-51 93-52c7-4 11-11 11-18v-192c0-11-9-21-21-21h-208c-12 0-21 10-21 21v192c0 7 4 14 10 18l94 52 0 51h-187v-159c0-1-1-3-1-4 0-1 1-3 1-4 0-184 149-333 333-333 184 0 333 149 333 333 0 1 1 2 1 3 0 2-1 3-1 5z m84 159h-42v-159c0-1 0-3-1-4 1-1 1-3 1-4h42c46 0 83 37 83 83 0 46-37 84-83 84z m-229 125c-12 0-21 9-21 21v166c0 12 9 21 21 21s20-9 20-21v-166c0-12-9-21-20-21z m-188 0c-11 0-21 9-21 21v166c0 12 10 21 21 21s21-9 21-21v-166c0-12-9-21-21-21z m-187 0c-12 0-21 9-21 21v166c0 12 9 21 21 21s20-9 20-21v-166c0-12-9-21-20-21z m-167-750h708c12 0 21-10 21-21 0-12-9-21-21-21h-708c-12 0-21 9-21 21 0 11 9 21 21 21z" horiz-adv-x="917" />

<glyph glyph-name="tealeaf" unicode="&#xe806;" d="M999 369c-4 81-2 127-2 127 1 9-4 17-12 21-8 4-18 2-25-4 0-1-49-46-194-55-91-6-130-43-152-70-27-35-37-87-26-138 7-36 24-66 46-86-35-49-63-107-83-178-20 99-54 195-100 283 46 22 85 72 105 138 20 70 13 140-20 187-27 38-78 91-206 110-57 9-107 23-148 42-85 40-115 76-116 76-5 7-13 10-21 8-9-2-15-8-17-16-1-3-20-82-27-207-3-61-5-269 115-381 54-50 111-63 157-63 47 0 82 15 84 16 11 5 16 17 12 28-5 11-18 16-29 12-4-2-105-44-194 39-107 99-105 290-101 347 4 71 12 127 18 162 21-17 53-38 101-61 45-20 98-35 160-45 124-19 162-72 177-93 25-35 30-91 13-149-16-54-48-96-84-112-58 102-133 190-220 258-9 7-23 5-30-4-8-10-6-23 3-31 189-146 319-399 341-660 1-11 9-19 19-20 1 0 1 0 1 0 0 0 0 0 0 0 0 0 1 0 1 0 1 0 1 0 2 0 0 0 0 0 0 0 11 0 20 7 22 18 38 220 113 331 275 409 10 5 15 18 10 29-5 11-18 15-29 10-67-32-120-70-163-118-15 14-26 35-32 61-8 38-1 77 18 102 11 13 38 48 121 53 92 6 151 26 184 43 0-22 1-52 3-90 3-63-6-183-65-233-67-56-125-29-128-27-10 5-23 1-29-10s-1-23 9-29c2-1 26-13 60-13 32 0 73 10 116 46 89 75 82 249 80 268z" horiz-adv-x="1000" />

<glyph glyph-name="wind" unicode="&#xe807;" d="M21 452h420c1 0 2 0 3 0 1 0 2 0 3 0 0 0 1 0 1 0 67 0 126 45 144 110 10 38 5 78-15 113-20 34-52 59-90 69-79 22-161-25-183-104-7-26-7-52 0-77 3-12 15-19 26-16 11 3 18 15 15 26-5 18-5 37 0 55 16 57 74 91 131 75 27-7 50-25 64-49 14-25 18-54 11-81-13-47-55-79-103-79 0 0-1 0-1 0-1 0-2 0-3 0-1 0-2 0-3 0h-420c-11 0-21-9-21-21 0-12 10-21 21-21z m586-170c0 0 0 0-1 0h-1 0-584c-11 0-21-10-21-21s10-22 21-22h584c37 0 71-17 94-46 20-26 29-58 25-90s-21-61-46-81c-26-19-58-28-90-24-32 4-60 20-80 46-23 29-31 67-22 103 2 11-5 23-16 25-12 3-23-4-26-15-12-49-1-100 30-140 27-34 66-56 109-62 7 0 14-1 21-1 36 0 71 12 100 35 34 27 56 65 62 109 5 43-7 86-34 121-30 39-75 62-125 63z m244 428c-100 20-196-46-216-146-6-31-3-64 7-95 4-11 16-17 27-13 11 4 17 16 13 27-8 24-10 49-5 73 15 77 89 127 166 112 76-14 127-89 112-165-12-63-66-110-130-115 0 0 0 0-1 0 0 0 0 0-1 0h-802c-11 0-21-9-21-21s10-21 21-21h802c1 0 2 0 3 0 0 0 0 0 1 0 0 0 1 0 1 0 84 5 153 67 169 149 19 99-47 196-146 215z" horiz-adv-x="1000" />

<glyph glyph-name="abacus" unicode="&#xe808;" d="M979 329h-169c-10-59-61-104-122-104-62 0-113 45-123 104h-275c-10-59-61-104-123-104s-113 45-123 104h-23c-12 0-21 10-21 21 0 12 9 21 21 21h23c10 59 61 104 123 104s113-45 123-104h275c10 59 61 104 123 104 61 0 112-45 122-104h169c12 0 21-9 21-21 0-11-9-21-21-21z m-812 104c-46 0-84-37-84-83 0-46 38-83 84-83s83 37 83 83c0 46-37 83-83 83z m521 0c-46 0-84-37-84-83 0-46 38-83 84-83 45 0 83 37 83 83 0 46-38 83-83 83z m291 209h-419c-10-59-61-104-122-104s-113 45-123 104h-25c-10-59-61-104-123-104-62 0-113 45-123 104h-23c-12 0-21 9-21 21s9 20 21 20h23c10 59 61 105 123 105 62 0 113-46 123-105h25c10 59 61 105 123 105s112-46 122-105h419c12 0 21-9 21-20s-9-21-21-21z m-812 104c-46 0-84-38-84-83s38-84 84-84c46 0 83 38 83 84s-37 83-83 83z m271 0c-46 0-84-38-84-83s38-84 84-84 83 38 83 84-37 83-83 83z m-417-688h419c10 59 61 105 123 105 61 0 112-46 122-105h25c10 59 62 105 123 105 62 0 113-46 123-105h23c12 0 21-9 21-20 0-12-9-21-21-21h-23c-10-59-61-105-123-105s-113 46-123 105h-25c-10-59-61-105-122-105-62 0-113 46-123 105h-419c-12 0-21 9-21 21 0 11 9 20 21 20z m812-104c46 0 84 37 84 84s-38 83-84 83c-46 0-83-37-83-83s37-84 83-84z m-270 0c46 0 83 37 83 84s-37 83-83 83-84-37-84-83 38-84 84-84z" horiz-adv-x="1000" />

<glyph glyph-name="fog" unicode="&#xe809;" d="M980-60c-6-1-12-1-18-1-48 0-96 37-134 67l-17 14-17-14c-38-30-86-67-134-67-49 0-96 37-135 67l-17 14-16-14c-39-30-87-67-135-67-41 0-81 29-117 55l-25 18-24-18c-36-26-77-55-117-55-6 0-12 0-18 1-10 1-19-7-20-18-1-10 7-19 17-20 7-1 14-1 21-1 53 0 100 34 139 62l2 2 3-2c38-28 86-62 139-62 58 0 110 38 151 70 42-32 93-70 152-70 58 0 109 38 151 70 42-32 93-70 151-70 7 0 14 0 21 1 10 1 18 10 17 20-1 11-10 18-20 18z m-239 275c-8-8-8-20 0-27l93-93c4-4 9-6 14-6s9 2 13 6c7 7 7 19 0 26l-94 94c-7 7-19 7-26 0z m13 369c5 0 10 1 13 5l94 94c7 7 7 19 0 26s-19 8-27 0l-93-93c-8-8-8-20 0-27 3-4 8-5 13-5z m76-154c0-10 8-19 19-19h132c11 0 19 9 19 19s-8 19-19 19h-132c-11 0-19-8-19-19z m-265 208c11 0 19 9 19 19v132c0 11-8 19-19 19s-19-8-19-19v-132c0-10 9-19 19-19z m-185-89c3-4 8-6 13-6 5 0 10 2 13 6 8 7 8 19 0 27l-93 93c-8 8-20 8-27 0-7-7-7-19 0-26l94-94z m83-89c9-5 20-3 26 6 23 37 62 59 105 59 67 0 122-55 122-123 0-43-21-82-58-105-9-5-12-17-6-26 3-5 10-9 16-9 3 0 7 1 10 3 48 30 76 81 76 137 0 89-72 161-160 161-57 0-108-29-137-77-6-9-3-21 6-26z m66-86c0 10-8 19-19 19h-491c-10 0-19-9-19-19 0-11 9-19 19-19h491c11 0 19 8 19 19z m57-133c0 11-8 19-19 19h-418c-10 0-19-8-19-19 0-10 9-19 19-19h418c11 0 19 9 19 19z m-491-113c-11 0-19-9-19-19 0-10 8-19 19-19h395c10 0 18 9 18 19 0 10-8 19-18 19h-395z" horiz-adv-x="1000" />

<glyph glyph-name="hourglass" unicode="&#xe80a;" d="M646 808h-63v-229c0-125-102-197-177-229 75-32 177-104 177-229v-229h63c11 0 21-10 21-21s-10-21-21-21h-625c-12 0-21 9-21 21s9 21 21 21h62v229c0 125 103 197 178 229-75 32-178 104-178 229v229h-62c-12 0-21 10-21 21s9 21 21 21h625c11 0 21-9 21-21s-10-21-21-21z m-521-687v-229h417v229c0 155-188 208-209 208-20 0-208-53-208-208z m417 687h-417v-229c0-155 188-207 208-208 21 1 209 53 209 208v229z m-104-145h41v-42h-41v42z m0-125h-42v41h42v-41z m-84 125h42v-42h-42v42z m0-125h-41v41h41v-41z m-83 125h42v-42h-42v42z m0-125h-42v41h42v-41z m-83 125h41v-42h-41v42z m125-209h-42v42h42v-42z m83 0h-42v42h42v-42z m-42-416h-41v41h41v-41z m-41-84h-42v42h42v-42z m-84 125h42v-41h-42v41z m0-125h-41v42h41v-42z m167 0h-42v42h42v-42z m0 125h42v-41h-42v41z m83-125h-41v42h41v-42z" horiz-adv-x="667" />

<glyph glyph-name="arr-up" unicode="&#xe80b;" d="M0 106c0 7 3 15 9 21l468 489c6 6 15 10 23 10s17-4 23-10l468-489c12-12 12-32-1-44s-32-12-44 1l-446 465-446-465c-12-13-32-13-44-1-7 6-10 14-10 23z" horiz-adv-x="1000" />

<glyph glyph-name="arr-down" unicode="&#xe80c;" d="M1000 595c0-8-3-16-9-22l-468-489c-6-6-14-10-23-10s-17 4-23 10l-468 489c-12 12-12 32 1 44s32 12 44-1l446-465 446 465c12 13 32 13 44 1 7-6 10-14 10-22z" horiz-adv-x="1000" />

<glyph glyph-name="arr-left" unicode="&#xe80d;" d="M745-150c-8 0-16 3-22 9l-489 468c-6 6-10 15-10 23s4 17 10 23l489 468c12 12 32 12 44-1 12-12 12-32-1-44l-465-446 465-446c13-12 13-32 1-44-6-7-14-10-22-10z" horiz-adv-x="1000" />

<glyph glyph-name="arr-right" unicode="&#xe80e;" d="M256 850c7 0 15-3 21-9l489-468c6-6 10-14 10-23s-4-17-10-23l-489-468c-12-12-32-12-44 1s-12 32 1 44l465 446-465 446c-13 12-13 32-1 44 6 7 14 10 23 10z" horiz-adv-x="1000" />

<glyph glyph-name="image" unicode="&#xe80f;" d="M906 748h-812c-52 0-94-42-94-94v-608c0-52 42-94 94-94h812c52 0 94 42 94 94v608c0 52-42 94-94 94z m-812-63h812c17 0 31-14 31-31v-519l-191 196c-11 11-28 12-41 3l-141-106-225 225c-12 12-31 13-43 2l-233-203v402c0 17 14 31 31 31z m812-671h-812c-17 0-31 14-31 32v123l252 220 224-224c11-11 28-12 41-3l141 106 216-222v0c0-18-14-32-31-32z m-182 407c40 0 72 32 72 71 0 40-32 73-72 73-40 0-72-33-72-73 0-39 32-71 72-71z m0 81c5 0 10-4 10-10 0-5-5-9-10-9-5 0-10 4-10 9 0 6 5 10 10 10z" horiz-adv-x="1000" />

<glyph glyph-name="beverage" unicode="&#xe810;" d="M812 38h-62c0-104-84-188-187-188h-375c-104 0-188 84-188 188v341 32 106c0 23 19 41 42 41h666c23 0 42-18 42-41v-104h62c104 0 188-85 188-188 0-103-84-187-188-187z m-104 479h-666v-106-32-341c0-81 65-146 146-146h375c80 0 145 65 145 146v341 32 106z m104-146h-62v-292h62c81 0 146 66 146 146 0 80-65 146-146 146z m-249 271c-12 0-21 9-21 21v166c0 12 9 21 21 21s20-9 20-21v-166c0-12-9-21-20-21z m-188 0c-11 0-21 9-21 21v166c0 12 10 21 21 21s21-9 21-21v-166c0-12-9-21-21-21z m-187 0c-12 0-21 9-21 21v166c0 12 9 21 21 21s20-9 20-21v-166c0-12-9-21-20-21z" horiz-adv-x="1000" />

<glyph glyph-name="calendar" unicode="&#xe811;" d="M276 483h-82c-17 0-31-14-31-31v-82c0-17 14-31 31-31h82c17 0 31 14 31 31v82c0 17-14 31-31 31z m-31-81h-19v19h19v-19z m296 81h-82c-17 0-31-14-31-31v-82c0-17 14-31 31-31h82c17 0 31 14 31 31v82c0 17-14 31-31 31z m-32-81h-19v19h19v-19z m296 81h-81c-17 0-31-14-31-31v-82c0-17 14-31 31-31h81c18 0 32 14 32 31v82c0 17-14 31-32 31z m-31-81h-19v19h19v-19z m-498-163h-82c-17 0-31-14-31-32v-81c0-17 14-31 31-31h82c17 0 31 14 31 31v81c0 18-14 32-31 32z m-31-82h-19v19h19v-19z m296 82h-82c-17 0-31-14-31-32v-81c0-17 14-31 31-31h82c17 0 31 14 31 31v81c0 18-14 32-31 32z m-32-82h-19v19h19v-19z m296 82h-81c-17 0-31-14-31-32v-81c0-17 14-31 31-31h81c18 0 32 14 32 31v81c0 18-14 32-32 32z m-31-82h-19v19h19v-19z m132 571h-171v91c0 17-14 31-31 31s-32-14-32-31v-91h-345v91c0 17-14 31-31 31s-31-14-31-31v-91h-171c-52 0-94-43-94-94v-690c0-52 42-94 94-94h812c52 0 94 42 94 94v690c0 51-42 94-94 94z m31-784c0-18-14-32-31-32h-812c-17 0-31 14-31 32v690c0 17 14 31 31 31h171v-50c0-17 14-31 31-31s31 14 31 31v50h345v-50c0-17 14-31 32-31s31 14 31 31v50h171c17 0 31-14 31-31v-690z" horiz-adv-x="1000" />

<glyph glyph-name="page-next" unicode="&#xe812;" d="M418 116c-4 0-8 1-11 4-6 7-6 17 0 23l215 207-215 208c-6 6-6 15 0 22 6 6 16 6 22 0l226-219c3-3 5-7 5-11s-2-8-5-11l-226-219c-3-3-7-4-11-4z m82 703c-258 0-469-210-469-469 0-258 211-469 469-469 259 0 469 211 469 469 0 259-210 469-469 469m0 31c276 0 500-224 500-500 0-276-224-500-500-500-276 0-500 224-500 500 0 276 224 500 500 500l0 0z" horiz-adv-x="1000" />

<glyph glyph-name="menu" unicode="&#xe813;" d="M979 329h-958c-12 0-21 10-21 21 0 12 9 21 21 21h958c12 0 21-9 21-21 0-11-9-21-21-21z m0 354h-958c-12 0-21 10-21 21s9 21 21 21h958c12 0 21-9 21-21s-9-21-21-21z m-958-666h958c12 0 21-10 21-21s-9-21-21-21h-958c-12 0-21 9-21 21s9 21 21 21z" horiz-adv-x="1000" />

<glyph glyph-name="notify" unicode="&#xe814;" d="M583 370h-320-14-239v-189-77-25h1c8-82 55-152 123-193h-134v-36h582v36h-187c74 45 124 126 124 218v161h-36v-161c0-120-98-218-219-218-120 0-218 98-218 218v77 153h203 14 320c45 0 81-36 81-80s-36-81-81-81v-36c65 0 117 52 117 117 0 64-52 116-117 116z m-293 170c-22 0-40-18-40-40 0-22 18-40 40-40 22 0 40 18 40 40 0 22-18 40-40 40z m-50 289l17-240 0 0c0-11 7-19 16-19h34c8 0 15 8 16 19l0 0 17 240h0c0 0 0 1 0 1 0 11-8 20-17 20h-66c-10 0-17-9-17-20 0 0 0-1 0-1h0z" horiz-adv-x="700" />

<glyph glyph-name="location2" unicode="&#xe815;" d="M375 850c-207 0-375-166-375-371 0-315 347-612 362-624 3-3 8-5 13-5s10 2 13 5c15 12 362 309 362 624 0 205-168 371-375 371z" horiz-adv-x="750" />

<glyph glyph-name="location1" unicode="&#xe816;" d="M429-150c-245 0-429 77-429 179 0 56 56 115 139 146 10 4 22-1 26-12 4-10-1-22-12-26-74-28-112-75-112-108 0-65 159-138 388-138 228 0 387 73 387 138 0 33-38 80-112 108-11 4-16 16-12 26 4 11 16 16 26 12 83-31 139-90 139-146 0-102-184-179-428-179z m13 148c-4-3-8-5-13-5s-10 2-14 5c-12 11-293 264-293 533 0 176 138 319 307 319 168 0 306-143 306-319 0-269-281-522-293-533z m-13 811c-147 0-266-125-266-278 0-218 210-435 266-490 56 55 265 272 265 490 0 153-119 278-265 278z m-143-265c0 79 64 143 143 143 78 0 142-64 142-143 0-79-64-143-142-143-79 0-143 64-143 143z m245 0c0 56-46 102-102 102-57 0-102-46-102-102s45-102 102-102c56 0 102 46 102 102z" horiz-adv-x="857" />

<glyph glyph-name="location3" unicode="&#xe817;" d="M375 850c-207 0-375-166-375-371 0-315 347-612 362-624 3-3 8-5 13-5s10 2 13 5c15 12 362 309 362 624 0 205-168 371-375 371z m0-562c-103 0-187 84-187 187s84 188 187 188 188-85 188-188-85-187-188-187z" horiz-adv-x="750" />

<glyph glyph-name="help" unicode="&#xe818;" d="M375 610c0 77-47 139-138 139-65 0-121-31-166-83l-67 62c59 68 141 119 245 119 146 0 241-89 241-229 0-189-232-265-208-467h-105c-29 224 198 306 198 459z m-227-671c0 52 38 91 85 91 47 0 86-39 86-91 0-53-39-89-86-89-47 0-85 36-85 89z" horiz-adv-x="490" />

<glyph glyph-name="heart" unicode="&#xe819;" d="M1047 341c0 0 0 0 0 0l-415-461c-17-19-41-30-66-30 0 0 0 0 0 0-25 0-48 11-66 30l-415 461c0 0 0 0 0 0-114 117-114 306 1 422 56 56 130 87 209 87 78 0 153-31 208-87 0 0 0-1 1-1 0 0 0 0 0 0l62-67 62 67c1 0 1 0 1 0 0 0 0 1 0 1 56 56 130 87 209 87 79 0 153-31 209-87 114-116 115-305 0-422z m-34 388c-47 47-109 73-175 73-66 0-128-25-175-73l-80-85c0 0 0 0 0 0 0 0 0-1-1-1-1-1-3-2-4-3-1 0-2-1-3-1-3-2-6-2-9-2s-6 0-9 2c-1 0-1 1-2 1-2 1-4 2-5 3 0 0 0 1 0 1-1 0-1 0-1 0l-79 85c-47 47-109 73-175 73-67 0-129-26-176-73-97-98-97-257 0-355 0 0 0 0 1 0 0-1 0-1 0-1l415-461c9-9 20-14 31-14h0c12 0 23 5 31 14l415 461c1 0 1 0 1 1 0 0 0 0 0 0 97 98 97 257 0 355z" horiz-adv-x="1133" />

<glyph glyph-name="gift" unicode="&#xe81a;" d="M1044 361h-44v-455c0-41-25-55-48-55h-816c-14 0-47 5-47 55v455h-67c-12 0-22 12-22 24v165c0 32 37 56 67 56h149c-41 30-72 75-72 133 0 112 100 112 133 112 41 0 165-41 267-221 102 179 225 221 266 221 33 0 134 0 134-112 0-58-31-103-72-133h150c11 0 45-2 45-56v-165c0-12-10-24-23-24z m-488-466h396c1 0 2 0 2 0 0 1 2 4 2 11v455h-400v-466z m-423 11c0-6 1-9 2-11 0 0 0 0 0 0 0 0 0 0 1 0h375v466h-378v-455z m-67 657c-8 0-21-9-22-13l0-144h67 400v157l-158 0c-3-1-6-2-9-2-8 0-16 1-25 2h-253z m211 243c-55 0-89-11-89-67 0-89 100-133 156-133 0 0 0 0 1 0h162c-93 165-204 200-230 200z m622-67c0 56-34 67-89 67-26 0-136-35-229-200h162c0 0 0 0 1 0 56 0 155 44 155 133z m123-189c0 7-1 11-1 13l-253 0c-8-1-17-2-24-2-3 0-6 1-9 2h-179v-157h422 44v144z" horiz-adv-x="1067" />

<glyph glyph-name="faq" unicode="&#xe81b;" d="M825-144c-4-4-9-6-14-6-6 0-11 2-15 6l-106 107c-25-19-55-30-87-30-81 0-146 66-146 146 0 81 65 146 146 146 80 0 145-65 145-146 0-32-11-63-29-87l106-106c8-9 8-22 0-30z m-222 327c-58 0-104-46-104-104 0-57 46-104 104-104 28 0 54 12 73 30 0 0 0 1 0 1 0 0 0 0 0 0 19 19 31 45 31 73 0 58-47 104-104 104z m124 84c-11 0-19 9-19 21v312h-583c-32 0-61 13-84 33v-666c0-41 34-75 76-75h382c11 0 21-10 21-21 0-12-10-21-21-21h-382c-65 0-117 53-117 117v773c0 4 1 7 2 10 12 57 62 100 123 100h602c12 0 21-9 21-21s-9-21-21-21c-45 0-83-37-83-83 0-46 38-83 83-83 12 0 23-10 23-21v-333c0-12-11-21-23-21z m-602 541c-46 0-84-37-84-83 0-46 38-83 84-83h510c-20 22-32 51-32 83 0 32 12 61 32 83h-510z" horiz-adv-x="831" />

<glyph glyph-name="facebook-circle" unicode="&#xe81c;" d="M582 554c25 0 52-7 52-7l16 92c0 0-34 11-115 11-50 0-79-18-100-45-20-26-21-67-21-93v-60h-64v-90h64v-312h121v312h95l7 90h-102v70c0 24 22 32 47 32z m-82 254c253 0 458-205 458-458 0-253-205-458-458-458-253 0-458 205-458 458 0 253 205 458 458 458m0 42c-276 0-500-224-500-500 0-276 224-500 500-500s500 224 500 500c0 276-224 500-500 500l0 0z" horiz-adv-x="1000" />

<glyph glyph-name="check-circle" unicode="&#xe81d;" d="M500-150c-276 0-500 224-500 500s224 500 500 500c276 0 500-224 500-500s-224-500-500-500z m0 938c-241 0-437-197-437-438s196-438 437-438 438 197 438 438-197 438-438 438z m-58-632c9 0 17 4 22 10l303 326c12 12 11 32-1 44-13 12-33 11-44-2l-281-302-164 161c-12 12-32 12-44-1-12-12-12-32 0-44l187-183c5-6 13-9 22-9 0 0 0 0 0 0z" horiz-adv-x="1000" />

<glyph glyph-name="checkbox" unicode="&#xe81e;" d="M447 76c-12 0-24 4-34 12l-268 219c-23 19-27 54-8 77 18 24 52 28 75 9l228-187 341 399c20 23 53 25 76 6 22-20 24-55 5-78l-375-438c-11-13-26-19-40-19z m491 712v-876h-875v876h875m62 62h-1000v-1000h1000v1000l0 0z" horiz-adv-x="1000" />

<glyph glyph-name="checkbox-empty" unicode="&#xe81f;" d="M938 788v-876h-875v876h875m62 62h-1000v-1000h1000v1000l0 0z" horiz-adv-x="1000" />

<glyph glyph-name="check" unicode="&#xe820;" d="M571-150c-20 0-41 7-59 21l-476 390c-41 34-48 95-15 137 33 42 93 49 134 15l405-331 606 709c35 41 95 45 135 9 39-35 43-97 9-137l-667-780c-19-22-45-33-72-33z" horiz-adv-x="1333" />

<glyph glyph-name="cart" unicode="&#xe821;" d="M427 124c-43 0-78-35-78-78 0-43 35-78 78-78 43 0 78 35 78 78 0 43-35 78-78 78z m0-42c20 0 36-16 36-36 0-20-16-36-36-36-20 0-36 16-36 36 0 20 16 36 36 36z m329 42c-43 0-78-35-78-78 0-43 35-78 78-78s78 35 78 78c0 43-35 78-78 78z m0-114c-20 0-36 16-36 36s16 36 36 36 36-16 36-36-16-36-36-36z m188 541c-4 5-10 8-17 8h-645l-62 221c-6 20-26 35-47 35h-159c-12 0-21-9-21-21s9-20 21-20h159c2 0 6-3 7-5l171-607 0-2c1-1 1-1 1-2 1-2 2-3 3-4 1-1 1-1 2-2 1-1 2-2 4-3l2-1c3-1 5-1 8-1h447c10 0 18 6 20 15l109 370c2 6 1 13-3 19z m-558-363l-92 329h605l-96-329h-417z" horiz-adv-x="1000" />

<glyph glyph-name="page-prev" unicode="&#xe822;" d="M551 116c-4 0-8 1-11 4l-227 219c-3 3-4 7-4 11s1 8 5 11l226 219c6 6 16 6 22 0 6-7 6-16 0-22l-215-208 215-207c6-6 6-16 0-23-3-3-7-4-11-4z m-51 703c-258 0-469-210-469-469 0-258 211-469 469-469 259 0 469 211 469 469 0 259-210 469-469 469m0 31c276 0 500-224 500-500 0-276-224-500-500-500-276 0-500 224-500 500 0 276 224 500 500 500l0 0z" horiz-adv-x="1000" />

<glyph glyph-name="page-next2" unicode="&#xe823;" d="M341 116c-4 0-8 1-11 4-6 7-6 17 0 23l215 207-215 208c-6 6-6 15 0 22 6 6 16 6 22 0l226-219c3-3 5-7 5-11s-2-8-5-11l-226-219c-3-3-7-4-11-4z m165 4l226 219c3 3 5 7 5 11s-2 8-5 11l-226 219c-6 6-16 6-22 0-6-7-6-16 0-22l215-208-215-207c-6-6-6-16 0-23 3-3 7-4 11-4 4 0 8 1 11 4z m-6 699c-258 0-469-210-469-469 0-258 211-469 469-469 259 0 469 211 469 469 0 259-210 469-469 469m0 31c276 0 500-224 500-500 0-276-224-500-500-500-276 0-500 224-500 500 0 276 224 500 500 500l0 0z" horiz-adv-x="1000" />

<glyph glyph-name="page-prev2" unicode="&#xe824;" d="M659 116c-4 0-8 1-11 4l-226 219c-3 3-5 7-5 11s2 8 5 11l226 219c6 6 16 6 22 0 6-7 6-16 0-22l-215-208 215-207c6-6 6-16 0-23-3-3-7-4-11-4z m-143 4c6 7 6 17 0 23l-215 207 215 208c6 6 6 15 0 22-6 6-16 6-22 0l-226-219c-3-3-5-7-5-11s2-8 5-11l226-219c3-3 7-4 11-4 4 0 8 1 11 4z m-16 699c-258 0-469-210-469-469 0-258 211-469 469-469 259 0 469 211 469 469 0 259-210 469-469 469m0 31c276 0 500-224 500-500 0-276-224-500-500-500-276 0-500 224-500 500 0 276 224 500 500 500l0 0z" horiz-adv-x="1000" />

<glyph glyph-name="zoom-out" unicode="&#xe825;" d="M991-141c-7-6-15-9-23-9-8 0-16 3-23 9l-311 312v-248c0-18-15-32-32-32-18 0-32 14-32 32v325c0 1 0 1 0 2 0 4 1 7 2 11 2 3 4 6 6 9 1 0 1 1 1 1 0 0 1 0 1 1 3 2 6 4 10 6 3 1 6 2 10 2 0 0 1 0 2 0h325c18 0 32-14 32-32s-14-32-32-32h-248l312-311c12-13 12-33 0-46z m-593 950c-17 0-32-14-32-32v-248l-311 312c-13 12-33 12-46 0-12-13-12-33 0-46l312-311h-248c-18 0-32-15-32-32s14-32 32-32h325c5 0 9 1 13 2 7 3 14 10 17 18 1 3 2 7 2 11 0 0 0 1 0 1v325c0 18-14 32-32 32z" horiz-adv-x="1000" />

<glyph glyph-name="play" unicode="&#xe826;" d="M500-150c-276 0-500 224-500 500 0 276 224 500 500 500s500-224 500-500c0-276-224-500-500-500z m0 958c-253 0-458-205-458-458 0-253 205-458 458-458 253 0 458 205 458 458 0 253-205 458-458 458z m-114-684c-4-2-7-3-11-3-4 0-7 1-10 3-7 3-11 10-11 18v416c0 8 4 15 11 18 6 4 14 4 21 0l354-208c6-4 10-11 10-18 0-7-4-14-10-18l-354-208z m10 398v-344l292 172-292 172z" horiz-adv-x="1000" />

<glyph glyph-name="qna" unicode="&#xe827;" d="M985-149c-2-1-4-1-6-1-7 0-13 3-17 9l-106 158h-481c-48 0-83 38-83 86v122c0 12 9 21 21 21s20-9 20-21v-122c0-25 21-45 46-45h488c1 0 2-1 2-1 2 0 3 0 4-1 2 0 3-1 4-1 1-1 2-1 3-2 1-1 2-2 3-3 1-1 1-1 2-2l73-109v98 413c0 25-20 46-45 46h-100c-12 0-21 9-21 21s9 21 21 21h100c48 0 87-40 87-88v-413-166c0-9-6-17-15-20z m-360 478h-481l-106-157c-4-6-10-9-17-9-2 0-4 0-6 0-9 3-15 11-15 20v166 414c0 48 39 87 87 87h534c48 0 87-39 87-87v-347c0-49-35-87-83-87z m42 434c0 25-21 45-46 45h-534c-25 0-45-20-45-45v-414-97l73 109c1 0 1 1 2 1 1 1 2 2 3 3 1 1 2 2 3 2 1 1 2 1 4 2 1 0 2 1 4 1 0 0 1 0 2 0h488c25 0 46 20 46 46v347z m-104-142h-417c-12 0-21 9-21 21 0 11 9 21 21 21h417c11 0 20-10 20-21 0-12-9-21-20-21z m-417-63h292c11 0 20-9 20-20s-9-21-20-21h-292c-12 0-21 9-21 21s9 20 21 20z" horiz-adv-x="1000" />

<glyph glyph-name="radio" unicode="&#xe828;" d="M500 788c241 0 438-197 438-438s-197-438-438-438-437 197-437 438 196 438 437 438m0 62c-276 0-500-224-500-500 0-276 224-500 500-500 276 0 500 224 500 500 0 276-224 500-500 500l0 0z m-177-323c-97-98-97-256 0-354 98-97 256-97 354 0 97 98 97 256 0 354-98 97-256 97-354 0z" horiz-adv-x="1000" />

<glyph glyph-name="radio-empty" unicode="&#xe829;" d="M500 788c241 0 438-197 438-438s-197-438-438-438-437 197-437 438 196 438 437 438m0 62c-276 0-500-224-500-500 0-276 224-500 500-500 276 0 500 224 500 500 0 276-224 500-500 500l0 0z" horiz-adv-x="1000" />

<glyph glyph-name="reply" unicode="&#xe82a;" d="M991 206l-204-204c-6-6-14-9-22-9s-16 3-22 9c-12 12-12 32 0 44l150 150h-637c-141 0-256 115-256 256v224c0 17 14 31 31 31s32-14 32-31v-224c0-106 86-193 193-193h637l-150 150c-12 13-12 32 0 45s32 12 44 0l204-204c3-3 5-6 7-10 3-8 3-17 0-24-2-4-4-7-7-10z" horiz-adv-x="1000" />

<glyph glyph-name="search" unicode="&#xe82b;" d="M992-144c-4-4-9-6-15-6-5 0-10 2-14 6l-340 340c-66-59-153-96-249-96-206 0-374 168-374 375 0 207 168 375 374 375 207 0 375-168 375-375 0-96-37-183-96-250l339-339c8-9 8-22 0-30z m-618 952c-183 0-332-149-332-333 0-184 149-333 332-333 184 0 333 149 333 333 0 184-149 333-333 333z" horiz-adv-x="998" />

<glyph glyph-name="star" unicode="&#xe82c;" d="M500 845l165-311 335-67-233-260 42-352-309 151-309-151 42 352-233 260 335 67 165 311" horiz-adv-x="1000" />

<glyph glyph-name="user" unicode="&#xe82d;" d="M854-150h-833c-12 0-21 9-21 21v32c0 204 156 380 356 418-110 35-189 137-189 258 0 150 121 271 271 271 149 0 270-121 270-271 0-121-79-223-189-258 200-38 356-214 356-418v-32c0-12-9-21-21-21z m-187 729c0 127-103 229-229 229s-230-102-230-229c0-126 103-229 230-229s229 103 229 229z m166-676c0 205-185 385-395 385s-396-180-396-385v-11h791v11z" horiz-adv-x="875" />

<glyph glyph-name="x" unicode="&#xe82e;" d="M991-141c-6-6-14-9-22-9s-16 3-22 9l-447 447-447-447c-6-6-14-9-22-9s-16 3-22 9c-12 12-12 32 0 44l447 447-447 447c-12 12-12 32 0 44s32 12 44 0l447-447 447 447c12 12 32 12 44 0s12-32 0-44l-447-447 447-447c12-12 12-32 0-44z" horiz-adv-x="1000" />

<glyph glyph-name="zoom-in" unicode="&#xe82f;" d="M421 474c13-12 13-32 0-45-6-6-14-9-23-9s-16 3-22 9l-312 312v-249c0-17-14-32-32-32-18 0-32 15-32 32v326c0 4 1 8 3 12 1 4 3 7 6 10 0 0 0 0 0 1 1 0 1 0 1 0 3 3 6 5 10 7 4 1 8 2 12 2 0 0 0 0 0 0h326c17 0 32-14 32-32 0-18-15-32-32-32h-248l311-312z m579-592v326c0 17-14 32-32 32s-32-15-32-32v-249l-312 312c-12 13-32 13-45 0-12-13-12-33 0-45l312-312h-248c-18 0-33-14-33-32 0-18 15-32 33-32h325c4 0 8 1 12 2 8 4 14 10 18 18 1 3 1 6 2 9 0 1 0 2 0 3z" horiz-adv-x="1000" />

<glyph glyph-name="heart-1" unicode="&#xe830;" d="M1056 763c-57 56-131 87-211 87-79 0-154-31-210-87 0 0 0-1-1-1 0 0 0 0 0 0l-63-67-63 67c0 0 0 0 0 0 0 0 0 1 0 1-56 56-131 87-210 87-80 0-155-31-211-87-116-116-116-305-1-422 0 0 0 0 0 0l419-461c17-19 41-30 66-30 0 0 0 0 0 0 26 0 49 11 67 30l418 461c0 0 0 0 0 0 116 117 115 306 0 422z" horiz-adv-x="1142" />

<glyph glyph-name="comment" unicode="&#xe831;" d="M571 850c-315 0-571-192-571-428 0-137 93-260 261-349-5-101-65-184-66-185-5-8-6-17-2-26 5-7 13-12 21-12 1 0 1 0 2 0 7 0 172 11 250 143 15 0 72 0 105 0 316 0 572 193 572 429 0 236-256 428-572 428z m-141-824l-121 51c0 0 0 0 0 0l121-51 0 0z m189 229h-333c-13 0-24 10-24 24 0 13 11 23 24 23h333c13 0 24-10 24-23 0-14-11-24-24-24z m238 143h-571c-13 0-24 10-24 23s11 24 24 24h571c13 0 24-10 24-24s-11-23-24-23z m0 143h-571c-13 0-24 10-24 23s11 24 24 24h571c13 0 24-11 24-24s-11-23-24-23z" horiz-adv-x="1143" />

<glyph glyph-name="order-cancel" unicode="&#xe832;" d="M874 558c0 0 0-1 0-2v-330c0-12-9-21-21-21-11 0-19 9-19 21v312h-250c-11 0-21 10-21 21v250h-395l-1-916 437 0c11 0 21-10 21-21 0-12-10-21-21-21h-436c-23 0-42 19-42 42v914c0 24 19 43 42 43h415c1 0 2-1 3-1 1 0 1 0 2 0 4-1 7-3 10-6l268-268c0 0 1-1 1-1 1-1 1-2 2-2 3-4 5-8 5-14z m-270 221v-200h199l-199 200z m-15-755c-8 8-8 21 0 29l125 125c2 2 4 3 6 4 2 1 5 1 7 2 0 0 1 0 1 0 0 0 0 0 0 0l0 0c3 0 6-1 8-2 3-1 5-2 7-4 0 0 0 0 0 0l125-125c8-8 8-21 0-29-4-4-10-6-15-6-5 0-10 2-15 6l-89 89v-241c0-12-9-21-21-21s-20 9-20 21v241l-90-89c-8-8-21-8-29 0z" horiz-adv-x="1000" />

<glyph glyph-name="ongoing" unicode="&#xe833;" d="M987 112c-4-2-7-3-11-3-7 0-14 4-18 11l-71 123c-37-189-196-322-389-322-182 0-345 119-396 289-3 11 3 23 14 26 11 3 23-3 26-14 46-153 192-260 356-260 176 0 315 117 348 288l-108-74c-10-7-23-4-29 5-7 10-4 23 5 29l154 105c5 3 11 4 16 3 6-1 11-5 14-10l96-167c6-10 2-23-7-29z m-109 331c-11-3-23 3-26 14-46 153-192 260-356 260-176 0-315-117-348-287l108 74c10 6 23 4 29-6 6-10 4-23-6-29l-153-105c-4-2-8-3-12-3-1 0-3 0-5 0-5 1-10 5-13 10l-96 168c-6 10-3 23 7 28 10 6 23 3 29-7l71-123c37 188 196 322 389 322 182 0 345-119 396-290 3-11-3-22-14-26z" horiz-adv-x="1000" />

<glyph glyph-name="home" unicode="&#xe834;" d="M990 274c-4-4-9-6-14-6-6 0-12 3-16 7l-44 51v-433c0-23-21-42-44-42h-208c-23 0-41 19-41 42v313l-271 0v-313c0-23-18-42-41-42h-187c-23 0-43 19-43 42v433l-46-51c-7-8-20-9-29-1-9 7-9 20-2 29l478 542c8 9 24 9 31 0l478-542c8-9 7-22-1-29z m-492 526l-376-426c0 0 0 0 0-1v-480h189v313c0 23 18 42 41 42h271c23 0 41-19 41-42v-313h210v480l-376 427z" horiz-adv-x="1000" />

<glyph glyph-name="exchange" unicode="&#xe835;" d="M920 3c-4-5-10-7-15-7s-11 2-15 7l-27 26v-18c0-88-73-160-163-160-22 0-43 4-63 12-11 5-16 17-11 28 4 10 17 15 28 11 14-7 30-10 46-10 67 0 121 54 121 119v18l-28-26c-8-9-21-9-29 0-9 8-9 21 0 29l63 62c2 2 4 4 7 5 5 2 11 2 16 0 2-1 5-3 7-5l63-62c8-8 8-21 0-29z m-96 306c0-12-9-21-20-21-12 0-21 9-21 21v229h-250c-12 0-21 9-21 21v250h-396v-917l359 0c11 0 21-9 21-20 0-12-10-21-21-21h-358c-24 0-43 19-43 42v914c0 23 19 42 43 42h421c0 0 1 0 1 0 2 0 4-1 6-1 0 0 1-1 2-1 2-1 4-2 5-4 1 0 1 0 1 0l271-268c6-4 0-9 0-16v-250z m-270 479v-208l207-1-207 209z m-73-735c8 8 21 8 29 0l28-27v18c0 89 73 160 162 160 22 0 43-4 63-12 11-5 16-17 11-27-4-11-16-16-27-11-15 6-31 9-47 9-66 0-120-53-120-119v-18l27 27c8 8 22 8 30 0 8-8 8-22 0-30l-63-62c-2-2-5-4-7-5-3-1-6-1-8-1-3 0-6 0-8 1-3 1-5 3-7 5l-63 62c-9 8-9 22 0 30z" horiz-adv-x="1000" />

<glyph glyph-name="delivery-wait" unicode="&#xe836;" d="M459 183h250 251c11 0 20 9 20 20v167c0 12-9 21-20 21h-63v146c0 12-9 21-21 21h-146v104c0 12-9 21-21 21h-250c-12 0-21-9-21-21v-459c0-11 9-20 21-20z m480 41h-209v125h146 63l0-125 0 0z m-84 292v-125h-125v125h125z m-375 125h208v-104-167-146h-208v417z m499-542h-588l-134 693c-6 33-37 58-70 58h-166c-12 0-21-9-21-21 0-11 9-21 21-21h166c13 0 27-11 29-24l138-710c0 0 0 0 0 0 0 0 0-1 0-1 0-1 1-2 1-3 0 0 0-1 1-1 0-1 0-1 1-2 0-1 0-1 1-1 0-1 1-2 1-2 0 0 1-1 1-1 1-1 1-1 2-2 0 0 1 0 1 0 1-1 1-1 2-2 1 0 1 0 2 0 0-1 1-1 2-1 0 0 1 0 1 0 2-1 3-1 4-1h0 0 605c12 0 21 10 21 21 0 12-9 21-21 21z m-542-83c-46 0-84-38-84-84 0-46 38-83 84-83 46 0 83 37 83 83 0 46-37 84-83 84z m0-126c-23 0-42 19-42 42 0 23 19 42 42 42 23 0 42-19 42-42 0-23-19-42-42-42z m438 126c-46 0-84-38-84-84 0-46 38-83 84-83 46 0 83 37 83 83 0 46-37 84-83 84z m0-126c-23 0-42 19-42 42 0 23 19 42 42 42 23 0 42-19 42-42 0-23-19-42-42-42z" horiz-adv-x="1000" />

<glyph glyph-name="delivery-done" unicode="&#xe837;" d="M993 202c-8 6-20 4-26-4l-149-202-115 96c-8 7-20 6-26-2-6-8-5-19 2-26l130-109c4-2 8-4 12-4 1 0 2 0 2 0 5 1 10 3 13 7l160 219c6 8 5 19-3 25z m-383-180l-119-60v406l345 176v-284c0-10 9-18 19-18s18 8 18 18v314c0 0 0 0 0 0v0c0 2-1 4-1 6-1 1-1 1-1 1-1 2-2 4-3 6 0 0 0 0 0 0-1 1-3 2-4 3 0 0-1 0-2 0 0 1 0 1 0 1l-446 195c-5 2-11 2-16 0l-390-196c0 0 0 0 0 0-1 0-1 0-2-1-1-1-2-2-3-3-1 0-1 0-1-1-1-1-2-3-3-4 0-1 0-1 0-2-1-1-1-3-1-5v-446c0-7 4-14 11-17l455-195c0 0 0 0 0 0 0 0 0 0 1 0 2-1 4-1 6-1 0 0 0 0 0 0h0 0c0 0 0 0 0 0 2 0 4 0 6 1 1 0 1 0 1 1 1 0 1 0 1 0l145 72c9 5 13 16 8 25-4 9-15 12-24 8z m-396 630l405-178-147-75-411 176 153 77z m195 97l403-176-151-77-405 177 153 76z m-373-202l419-180v-407l-419 180v407z" horiz-adv-x="1000" />

<glyph glyph-name="delivery" unicode="&#xe838;" d="M1112 58h-33c-10-59-61-104-123-104-61 0-112 45-122 104h-34c-13 0-25 3-34 9-8-5-18-9-29-9h-199c-10-59-61-104-122-104-62 0-113 45-123 104h-74c-29 0-53 24-53 54v51c0 11 10 20 21 20 12 0 21-9 21-20v-51c0-6 5-12 11-12h74c10 59 61 104 123 104 61 0 112-45 122-104h199c6 0 13 14 13 21v208 263c-1 2-2 5-2 8s1 6 2 8v34c0 6-7 21-13 21h-518c-6 0-11-6-11-13v-29c0-12-9-21-21-21-11 0-21 9-21 21v29c0 30 24 54 53 54h518c29 0 53-24 53-54v-29h260c9 0 16-6 19-14l92-265c3-4 6-8 6-13v-208c0-29-26-63-55-63z m-696 105c-46 0-83-38-83-84 0-46 37-83 83-83 46 0 83 37 83 83 0 46-37 84-83 84z m540-167c46 0 83 37 83 83 0 46-37 84-83 84-46 0-83-38-83-84 0-46 37-83 83-83z m-166 333v-217-2c0-5 5-10 10-10h34c10 59 61 104 122 104s113-45 123-104h33c6 0 13-6 13 0v208h-169c-11 0-18 10-18 21v250h-148v-250z m245 250h-56v-229h135l-79 229z m-661-62c0-12-9-21-21-21h-208c-11 0-20 9-20 21s9 21 20 21h208c12 0 21-10 21-21z m-83-125c0-12-9-21-21-21h-249c-12 0-21 9-21 21s9 21 21 21h249c12 0 21-10 21-21z m-208-104h125c11 0 21-10 21-21s-10-21-21-21h-125c-11 0-21 9-21 21s10 21 21 21z" horiz-adv-x="1167" />

<glyph glyph-name="creditcard" unicode="&#xe839;" d="M915 17h-830c-47 0-85 37-85 83v500c0 46 38 83 85 83h830c47 0 85-37 85-83v-500c0-46-38-83-85-83z m43 583c0 23-19 42-43 42h-830c-24 0-43-19-43-42v-62h916v62z m0-146h-916v-354c0-23 19-42 43-42h830c24 0 43 19 43 42v354z m-125-312h-125c-11 0-20 9-20 21s9 20 20 20h125c12 0 21-9 21-20s-9-21-21-21z" horiz-adv-x="1000" />

<glyph glyph-name="coupon" unicode="&#xe83a;" d="M979 437c12 0 21 9 21 21v236c0 11-9 21-21 21h-958c-12 0-21-10-21-21v-236c0-12 9-21 21-21 53 0 97-44 97-97 0-54-44-98-97-98-12 0-21-9-21-20v-237c0-11 9-20 21-20h958c12 0 21 9 21 20v237c0 11-9 20-21 20-53 0-97 44-97 98 0 53 44 97 97 97z m-139-97c0-70 52-128 118-138v-196h-229v42c0 12-9 21-21 21s-20-9-20-21v-42h-646v196c66 10 118 68 118 138s-52 127-118 137v196h646v-42c0-11 9-21 20-21s21 10 21 21v42h229v-196c-66-10-118-68-118-137z m-132 187c-11 0-20-9-20-21v-104c0-11 9-21 20-21s21 10 21 21v104c0 12-9 21-21 21z m0-229c-11 0-20-9-20-21v-104c0-12 9-21 20-21s21 10 21 21v104c0 12-9 21-21 21z m-418 76c20 0 42 9 58 25 13 14 22 32 24 50 2 20-4 38-17 51-25 25-72 20-101-9-16-16-25-37-25-57 0-17 7-32 18-43 11-11 26-17 43-17z m-6 88c8 8 18 13 28 13 4 0 9-1 13-5 6-5 6-13 5-17-1-8-5-17-12-25-8-8-19-13-28-13-4 0-10 1-14 5-4 4-5 10-5 14 0 9 5 20 13 28z m181-182c-14-14-22-32-24-50-2-19 4-38 17-51 11-11 26-17 43-17 21 0 42 10 58 26 29 30 33 75 7 101-25 24-72 20-101-9z m64-63c-8-8-19-13-28-13-4 0-10 1-14 5-5 5-5 13-5 17 1 9 6 18 13 25 8 8 19 13 28 13 4 0 10-1 14-5 9-9 5-28-8-42z m38 284c-8 8-21 8-29 0l-293-293c-8-8-8-21 0-30 4-4 10-6 15-6 5 0 11 2 15 6l292 293c9 8 9 22 0 30z" horiz-adv-x="1000" />

<glyph glyph-name="call" unicode="&#xe83b;" d="M979 433c-12 0-21 10-21 21 0 195-159 354-354 354-12 0-21 9-21 21 0 11 9 21 21 21 218 0 396-178 396-396 0-11-10-21-21-21z m-146 0c0-11-9-21-21-21s-21 10-21 21c0 127-102 229-229 229-11 0-20 10-20 21s9 21 20 21c150 0 271-121 271-271z m-535 23l308-308 132 94c7 5 18 5 25-1l229-187c4-4 7-9 8-14 0-6-2-11-5-16l-126-150c-1 0-2-1-2-2-15-15-36-22-63-22-106 0-305 127-493 316-203 203-374 465-288 550 0 1 1 2 2 2l149 127c4 3 9 5 15 5 5-1 11-4 14-8l188-229c6-7 6-18 1-25l-94-132z m-114 343l-131-112c-48-51 59-263 287-492 199-199 385-303 464-303 15 0 26 3 33 10l112 133-200 164-133-95c-8-6-20-5-27 2l-333 333c-7 8-8 19-2 27l95 133-165 200z" horiz-adv-x="1000" />

<glyph glyph-name="bus" unicode="&#xe83c;" d="M854-46h-21v-83c0-12-9-21-20-21h-209c-11 0-21 9-21 21v83h-291v-83c0-12-10-21-21-21h-208c-12 0-21 9-21 21v83h-21c-12 0-21 9-21 21v791c0 46 38 84 85 84h705c47 0 85-38 85-84v-791c0-12-9-21-21-21z m-229-62h167v62h-167v-62z m-542 0h167v62h-167v-62z m750 874c0 23-19 42-43 42h-705c-24 0-43-19-43-42v-124h791v124z m0-166h-791v-312h791v312z m0-354h-791v-250h791v250z m-645-63c34 0 62-28 62-62 0-35-28-63-62-63s-63 28-63 63c0 34 28 62 63 62z m0-83c11 0 20 9 20 21 0 11-9 21-20 21s-21-10-21-21c0-12 9-21 21-21z m500 83c34 0 62-28 62-62 0-35-28-63-62-63s-63 28-63 63c0 34 28 62 63 62z m0-83c11 0 20 9 20 21 0 11-9 21-20 21s-21-10-21-21c0-12 9-21 21-21z m-438 646h375c12 0 21-9 21-21s-9-21-21-21h-375c-11 0-21 10-21 21s10 21 21 21z" horiz-adv-x="875" />

<glyph glyph-name="leaflet" unicode="&#xe83d;" d="M974-78l-459-72c-1 0-2 0-3 0 0 0 0 0 0 0 0 0 0 0 0 0l0 0 0 0c0 0 0 0 0 0h0c-1 0-3 0-4 0l-458 72c-28 6-50 32-50 60v820c0 15 6 29 17 37 11 10 26 13 41 10l454-79 454 79c14 3 29 0 40-10 11-8 17-22 17-37v-820c0-28-21-54-49-60z m-484 808l-440 77c-3 1-5 0-6-1-1 0-1-2-1-4v-820c0-8 7-16 15-18l432-68v834z m491 72c0 2-1 4-2 4-1 1-3 2-5 1l-441-77v-834l434 68c6 2 14 10 14 18v820z m-124-674l-213-42c-2-1-3-1-4-1-10 0-19 7-21 17-3 12 5 23 16 26l214 42c11 3 22-5 25-16 2-12-6-23-17-26z m0 214l-213-43c-2 0-3 0-4 0-10 0-19 7-21 17-3 12 5 23 16 25l214 43c11 3 22-5 25-17 2-11-6-22-17-25z m0 235l-213-42c-2-1-3-1-4-1-10 0-19 7-21 17-3 12 5 23 16 26l214 42c11 3 22-5 25-16 2-12-6-23-17-26z m-682 42l213-42c11-3 19-14 17-26-2-10-11-17-21-17-2 0-3 0-4 1l-214 42c-11 3-19 14-16 26 2 11 13 19 25 16z m0-235l213-43c11-2 19-13 17-25-2-10-11-17-21-17-2 0-3 0-4 0l-214 43c-11 3-19 14-16 25 2 12 13 20 25 17z m0-214l213-42c11-3 19-14 17-25-2-11-11-18-21-18-2 0-3 0-4 1l-214 42c-11 3-19 14-16 26 2 11 13 19 25 16z" horiz-adv-x="1023" />

<glyph glyph-name="info" unicode="&#xe83e;" d="M848-4c-94-94-219-146-352-146-132 0-257 52-351 146-194 195-194 513 0 708 94 94 219 146 351 146 133 0 258-52 352-146 94-95 145-220 145-354s-51-259-145-354z m-29 678c-87 87-201 134-323 134-121 0-236-47-322-134-177-179-177-469 0-648 86-87 201-134 322-134 122 0 236 47 323 134 86 87 133 202 133 324s-47 238-133 324z m-260-616h-125c-11 0-20 10-20 21s9 21 20 21h42v292h-42c-11 0-20 9-20 21 0 11 9 20 20 20h62c12 0 21-9 21-20v-313h42c11 0 20-9 20-21s-9-21-20-21z m-63 459c-34 0-62 28-62 62s28 63 62 63c35 0 63-28 63-63s-28-62-63-62z m0 83c-11 0-20-9-20-21 0-11 9-21 20-21s21 10 21 21c0 12-9 21-21 21z" horiz-adv-x="993" />

<glyph glyph-name="compass" unicode="&#xe83f;" d="M510 79c0 0-1 0-1 0-9 1-17 7-19 16l-51 193-194 48c-9 2-15 10-16 19 0 9 4 17 13 21l458 201c8 4 17 2 23-4s8-15 5-23l-199-458c-3-8-10-13-19-13z m-196 283l147-36c7-2 13-8 15-15l39-148 153 355-354-156z m186-512c-276 0-500 224-500 500 0 276 224 500 500 500 276 0 500-224 500-500 0-276-224-500-500-500z m0 958c-253 0-458-205-458-458s205-458 458-458 458 205 458 458-205 458-458 458z" horiz-adv-x="1000" />

<glyph glyph-name="clock" unicode="&#xe840;" d="M500-150c-276 0-500 224-500 500 0 276 224 500 500 500s500-224 500-500c0-276-224-500-500-500z m0 958c-253 0-458-205-458-458 0-253 205-458 458-458 253 0 458 205 458 458 0 253-205 458-458 458z m167-666c-6 0-12 2-16 7l-167 187c0 1 0 2-1 3-1 1-2 2-2 4-1 1-1 3-1 4 0 1-1 2-1 3v292c0 11 10 21 21 21 12 0 21-10 21-21v-284l161-182c8-8 7-21-1-29-4-4-9-5-14-5z" horiz-adv-x="1000" />

<glyph glyph-name="car" unicode="&#xe841;" d="M979 465h-55l11-36c1-2 1-4 1-6h11c29 0 53-24 53-54v-267c0-30-24-54-53-54h-30v-63c0-11-10-20-21-20h-167c-11 0-21 9-21 20v63h-416v-63c0-11-10-20-21-20h-167c-11 0-21 9-21 20v63h-30c-29 0-53 24-53 54v267c0 30 24 54 53 54h11c0 2 0 4 1 6l12 36h-56c-12 0-21 9-21 20s9 21 21 21h62c3 0 5 0 7-1l61 185c8 26 35 45 62 45h575c26 0 53-19 61-45l61-185c2 1 4 1 7 1h62c12 0 21-9 21-21s-9-20-21-20z m-229-459h125v42h-125v-42z m-625 0h125v42h-125v-42z m-72 375c-6 0-11-5-11-12v-267c0-7 5-12 11-12h894c6 0 11 5 11 12v267c0 7-5 12-11 12h-894z m757 296c-3 9-14 17-22 17h-575c-9 0-20-8-23-17l-83-254h786l-83 254z m3-504c-35 0-63 28-63 62 0 35 28 63 63 63s62-28 62-63c0-34-28-62-62-62z m0 83c-12 0-21-9-21-21 0-11 9-20 21-20s20 9 20 20c0 12-9 21-20 21z m-625-83c-35 0-63 28-63 62 0 35 28 63 63 63s62-28 62-63c0-34-28-62-62-62z m0 83c-12 0-21-9-21-21 0-11 9-20 21-20s20 9 20 20c0 12-9 21-20 21z" horiz-adv-x="1000" />

<glyph glyph-name="order-receive" unicode="&#xe842;" d="M894 50c-1-1-1-1-2-1 0-1 0-1-1-2l-170-170c-1-1-2-1-2-2-1 0-2-1-3-1-2-1-3-2-5-2 0 0-1-1-1-1l-102-20c-1 0-2 0-4 0-5 0-11 2-15 6-4 5-7 12-5 19l20 101c0 1 0 1 1 2 0 1 0 2 1 3 1 2 2 3 3 4 0 1 0 1 1 2l170 170c1 1 1 1 2 1 0 1 0 1 1 2 14 14 34 23 55 23 0 0 0 0 0 0 21 0 41-8 56-23 15-15 23-35 23-56 0-21-8-41-23-55z m-30 81c-7 7-16 11-26 11h0c-10 0-19-4-26-11 0 0-1 0-1-1-1 0-1-1-1-1l-167-166-12-65 65 13 166 166c0 0 1 0 1 1 1 0 1 1 1 1 7 7 11 16 11 26 0 10-4 19-11 26z m-31 157c0-12-9-21-20-21-12 0-21 9-21 21v250h-250c-12 0-21 9-21 20v251h-396v-916l354-1c12 0 21-9 21-20 0-12-9-21-21-21h-353c-24 0-43 19-43 42v914c0 23 19 42 43 42h416c0 0 1 0 1 0 2 0 4 0 5-1 1 0 2-1 2-1 3-1 5-2 6-4 0 0 0 0 0 0l269-268c1 0 1-1 2-2 0 0 1-1 1-2 3-3 6-8 6-13 0-1-1-1-1-2v-268h0z m-270 490v-199h199l-199 199z" horiz-adv-x="1000" />

<glyph glyph-name="point" unicode="&#xe843;" d="M500 850c-276 0-500-224-500-500 0-276 224-500 500-500s500 224 500 500c0 276-224 500-500 500z m0-958c-97 0-188 30-262 82 5 3 9 8 10 13 36 148 136 290 262 373 10 6 13 19 6 28-6 10-19 13-29 7-88-58-165-144-218-241-16 48-35 135 5 214 66 131 236 157 286 162 59 5 114 6 153 6-33-36-71-103-73-222-2-96-34-142-53-161-56-56-171-77-229-58-11 4-22-2-26-13-4-11 2-22 13-26 18-6 39-9 63-9 70 0 158 26 208 76 24 24 64 80 66 191 3 180 94 220 98 221 9 4 14 13 13 23-2 10-10 17-20 18-4 0-101 6-216-5-56-5-244-34-320-185-63-122-4-257 8-282-16-35-29-71-37-107-102 84-166 211-166 353 0 253 205 458 458 458 253 0 458-205 458-458 0-253-205-458-458-458z" horiz-adv-x="1000" />

<glyph glyph-name="refund-ing" unicode="&#xe844;" d="M931 177c0 1-1 1-1 1-1 1-1 1-2 2 0 0-1 0-1 1-1 0-2 0-2 1-1 0-1 0-2 0-1 1-2 1-2 1-1 0-2 0-2 0-1 0-2 0-2 0s-2 0-2 0c-1 0-2 0-2 0-1 0-2 0-3-1 0 0-1 0-1 0-1-1-2-1-2-1-1-1-1-1-2-1-1-1-1-1-2-2 0 0-1 0-1-1l-63-62c-8-8-8-22 0-30 9-8 22-8 30 0l27 27v-18c0-66-53-119-119-119-16 0-32 3-46 9-11 5-23 0-28-11-4-10 1-23 11-27 20-8 41-13 63-13 89 0 161 72 161 161v18l27-27c4-4 9-6 14-6 6 0 11 2 15 6 8 8 8 22 0 30l-63 62z m-298-159c1 1 1 1 2 1 0 1 1 1 2 1 0 1 1 1 1 2 1 0 1 0 2 1l62 62c8 8 8 22 0 30-8 8-21 8-29 0l-27-27v18c0 66 53 119 119 119 16 0 31-3 46-9 11-5 23 0 27 11 5 10 0 23-11 27-20 8-41 13-62 13-89 0-161-72-161-161v-18l-27 27c-8 8-21 8-29 0-8-8-8-22 0-30l62-62c1-1 1-1 2-1 0-1 1-1 1-2 1 0 2 0 2-1 1 0 1 0 2-1 1 0 2 0 2 0 1-1 1-1 2-1 1 0 3 0 4 0s3 0 4 0c1 0 1 0 2 1 1 0 1 0 2 0z m284 665h-834c-46 0-83-37-83-83v-500c0-46 37-83 83-83h382c11 0 21 9 21 21s-10 20-21 20h-382c-23 0-41 19-41 42v354h916v-156c0-12 10-21 21-21s21 9 21 21v302c0 46-37 83-83 83z m-834-41h834c23 0 41-19 41-42v-62h-916v62c0 23 18 42 41 42z" horiz-adv-x="1000" />

<glyph glyph-name="return-application" unicode="&#xe845;" d="M771-149c-81 0-146 65-146 145 0 12 9 21 21 21s21-9 21-21c0-57 46-104 104-104s104 47 104 104-47 104-104 104l-22 0 26-26c8-9 8-22 0-30-4-4-9-6-15-6s-10 2-14 6l-63 63c-8 8-8 21 0 29l63 62c8 8 21 8 29 0 8-8 8-21 0-29l-27-27 22 0c81 0 147-65 147-146 0-80-66-145-146-145z m62 416c0-12-9-21-20-21s-21 9-21 21v271h-250c-12 0-21 9-21 20v251h-396v-916l438-1c11 0 20-9 20-20 0-12-9-21-20-21h-437c-24 0-43 19-43 42v914c0 23 19 42 43 42h416c0 0 1 0 1 0 2 0 4-1 6-1 0 0 1-1 1-1 3-1 5-2 6-4 0 0 0 0 0 0l269-268c1 0 1-1 2-2 0 0 1-1 1-2 3-3 6-8 6-13 0-1-1-1-1-2l0-289 0 0z m-270 511v-199h199l-199 199z" horiz-adv-x="1000" />

<glyph glyph-name="user-circle" unicode="&#xe846;" d="M500-150c-276 0-500 224-500 500 0 276 224 500 500 500s500-224 500-500c0-276-224-500-500-500z m291 146c-52 112-168 187-291 187-122 0-238-75-290-188 79-64 180-103 290-103 110 0 212 39 291 104z m-289 250c102 0 186 84 186 187 0 104-84 188-186 188-102 0-185-84-185-188 0-103 83-187 185-187z m-2 562c-253 0-458-205-458-458 0-127 52-242 136-325 50 98 144 169 250 192-89 31-152 116-152 216 0 127 101 230 226 230 125 0 227-103 227-230 0-100-64-185-153-216 105-24 197-94 247-192 84 83 135 198 135 325 0 253-205 458-458 458z" horiz-adv-x="1000" />

<glyph glyph-name="cancel-done" unicode="&#xe847;" d="M531-108l-437 0 1 916h395v-250c0-11 9-20 20-20h250v-271c0-12 10-21 21-21s21 9 21 21v287c0 2 1 3 1 4 0 7-4 14-9 17l-269 269 0 0c-1 1-3 2-4 3-1 0-1 1-1 1-2 1-4 1-5 2-1 0-1 0-1 0-1 0-2 0-4 0h-415c-24 0-43-19-43-42v-916c0-23 19-42 43-42h436c12 0 21 9 21 21s-9 21-21 21z m0 687v200l200-200h-200z m408-441c-9 6-22 4-29-5l-171-232-132 111c-9 7-22 6-29-3-8-9-6-22 2-29l150-125c3-3 8-5 13-5 1 0 2 0 2 0 6 1 11 4 15 8l184 251c7 9 5 22-5 29z" horiz-adv-x="1000" />

<glyph glyph-name="check-done" unicode="&#xe848;" d="M458-159c-248 0-449 201-449 449 0 247 201 449 449 449 6 0 11-1 16-1l-69 68c-8 8-8 21 0 29 8 8 21 8 29 0l100-99c8-8 8-21 1-29l-101-105c-4-4-9-6-14-6-6 0-11 2-15 5-8 8-8 21 0 29l64 67c-4 0-7 1-11 1-225 0-409-183-409-408 0-225 184-409 409-409 226 0 409 184 409 409 0 136-71 273-182 348-9 6-11 19-5 28 6 9 19 12 28 6 122-83 200-233 200-382 0-248-202-449-450-449z m-43 293c-4-5-9-7-15-8 0 0-1 0-1 0-5 0-11 2-14 6l-144 143c-8 8-8 21 0 29 8 8 21 8 29 0l127-127 231 289c8 8 20 10 29 3 9-7 10-20 3-29l-245-306z" horiz-adv-x="900" />

<glyph glyph-name="comments" unicode="&#xe849;" d="M854 69c10-89 57-142 57-142 6-7 7-15 4-23-3-8-11-12-19-12 0 0 0 0 0 0-6 0-132 2-218 104h-74 0c-87 0-170 23-239 66-10 6-13 19-7 29 6 10 19 13 29 7 62-39 138-60 217-60h84c6 0 12-3 16-8 45-57 107-81 148-90-17 30-37 78-40 139-1 7 3 15 10 19 88 52 136 130 136 221 0 51-39 125-98 183-8 8-8 22 0 30 8 8 22 8 30 0 67-67 110-151 110-213 0-102-52-190-146-250z m-458 94c0 0 0 0 0 0h-74c-86-102-212-105-218-105 0 0 0 0 0 0-8 0-15 5-19 13-3 7-2 16 4 22 0 1 47 53 57 142-94 60-146 149-146 251 0 178 178 322 396 322s396-144 396-322c0-178-178-323-396-323z m0 604c-195 0-354-126-354-281 0-91 48-170 136-222 7-4 11-11 10-19-3-61-23-108-40-139 41 10 103 33 148 91 4 5 10 8 17 8h83c195 0 354 126 354 281 0 155-159 281-354 281z m185-250h-375c-12 0-21 9-21 20 0 12 9 21 21 21h375c11 0 21-9 21-21 0-11-10-20-21-20z m-375-84h291c12 0 21-9 21-20 0-12-9-21-21-21h-291c-12 0-21 9-21 21 0 11 9 20 21 20z" horiz-adv-x="1000" />

<glyph glyph-name="go-top" unicode="&#xe84a;" d="M860 431c-6-5-14-8-21-8-9 0-17 3-23 10l-285 306v-858c0-17-14-31-31-31s-31 14-31 31v858l-285-306c-11-13-31-13-44-2-12 12-13 32-1 45l338 364c0 0 0 0 1 0 5 6 13 10 22 10 9 0 17-4 23-10 0 0 0 0 0 0l338-364c12-13 12-33-1-45z" horiz-adv-x="1000" />

<glyph glyph-name="farm" unicode="&#xe84b;" d="M956 310c-240 0-429 75-437 79-273 101-494 85-497 85-11-1-21 8-22 20-1 11 8 21 19 22 10 1 233 16 515-89 2-1 203-80 445-75 12 0 21-9 21-20 0-12-9-21-20-22-8 0-16 0-24 0z m-334 119c1 1 125 79 354 46 12-1 22 7 24 18 1 11-6 22-18 24-245 35-378-49-383-53-10-6-13-19-6-29 4-6 10-9 17-9 4 0 8 1 12 3z m358-240c11 0 20 10 20 21 0 12-9 21-21 21 0 0 0 0 0 0-242-5-443 74-445 75-282 105-505 89-515 89-11-1-20-11-19-23 1-11 11-20 22-19 3 0 224 16 497-86 8-3 197-78 437-78 8 0 16 0 24 0z m0-121c11 0 20 9 20 21 0 11-9 20-21 20 0 0 0 0 0 0-242-5-443 75-445 76-282 105-505 89-515 88-11-1-20-11-19-22 1-12 11-20 22-19 3 0 224 15 497-86 8-3 197-79 437-79 8 0 16 1 24 1z m-332-59c3 11-3 23-14 26-62 16-99 31-100 32-282 105-505 89-515 88-11-1-20-11-19-22 1-12 11-20 22-20 3 1 224 16 497-85 1-1 40-16 104-33 2-1 3-1 5-1 9 0 18 6 20 15z m-387 515l159 133c25-11 83-28 140 0l184-124c9-6 22-4 29 6s4 22-6 29l-205 138-11-7c-58-35-123 0-124 0l-13 7-180-150c-9-7-10-20-3-29 4-5 10-8 16-8 5 0 10 2 14 5z" horiz-adv-x="1000" />

<glyph glyph-name="mountain" unicode="&#xe84c;" d="M673 591h-114c-12 0-21 9-21 20s9 21 21 21h114c12 0 21-9 21-21s-9-20-21-20z m88-84c0 11-9 21-20 21h-249c-12 0-21-10-21-21s9-21 21-21h249c11 0 20 9 20 21z m59-105c0 12-9 21-21 21h-370c-11 0-21-9-21-21s10-21 21-21h370c12 0 21 10 21 21z m-474 0c0 12-10 21-21 21h-124c-12 0-21-9-21-21s9-21 21-21h124c11 0 21 10 21 21z m536-104c0 11-10 21-21 21h-722c-11 0-21-10-21-21s10-21 21-21h722c11 0 21 9 21 21z m59-105c0 12-9 21-21 21h-840c-11 0-21-9-21-21s10-21 21-21h840c12 0 21 10 21 21z m59-104c0 11-9 20-21 20h-958c-12 0-21-9-21-20s9-21 21-21h958c12 0 21 9 21 21z" horiz-adv-x="1000" />

<glyph glyph-name="box" unicode="&#xe84d;" d="M979 621h-958c-12 0-21 9-21 21v125c0 11 9 21 21 21h958c12 0 21-10 21-21v-125c0-12-9-21-21-21z m-937 42h916v83h-916v-83z m875-751h-834c-11 0-20 10-20 21v709c0 11 9 21 20 21s21-10 21-21v-688h792v688c0 11 9 21 21 21s21-10 21-21v-709c0-11-10-21-21-21z m-219 167h-396c-11 0-21 10-21 21v375c0 12 10 21 21 21h396c11 0 21-9 21-21v-375c0-11-10-21-21-21z m-375 42h354v333h-354v-333z" horiz-adv-x="1000" />

<glyph glyph-name="url" unicode="&#xe84e;" d="M476 101a146 146 0 1 0-45-104 145 145 0 0 0 8 45l-55 50-174 116a142 142 0 0 0-63-15 148 148 0 0 0 0 296 146 146 0 0 0 54-11l198 173a145 145 0 0 0-10 52 148 148 0 1 0 147-146 146 146 0 0 0-94 35l-189-151a145 145 0 0 0 41-100 147 147 0 0 0-27-85l64-58z" horiz-adv-x="728" />

<glyph glyph-name="kakao" unicode="&#xe84f;" d="M543-9q-26 0-51 2c-17 0-30-1-30-1-19 0-26-4-26-4-157-99-303-135-303-135-39-9-31 4-31 4 78 69 118 173 118 173 10 24 1 41-9 51-128 79-211 201-211 340 0 237 243 429 543 429s543-192 543-429-243-430-543-430z m-225 537h-158a22 22 0 1 1 0-44h56v-187c0-14 11-26 24-26s24 12 24 26v187h54a22 22 0 1 1 0 44z m215-220l-90 203v0a1 1 0 0 0 0 1 42 42 0 0 1-12 12 1 1 0 0 1 0 0 19 19 0 0 1-3 2 0 0 0 0 1 0 0c-1 0-1 0-1 0a22 22 0 0 1-18 0c0 0 0 0 0 0a0 0 0 0 1 0 0 18 18 0 0 1-4-2 0 0 0 0 1 0 0 42 42 0 0 1-11-12l-90-204a27 27 0 0 1-1-20 23 23 0 0 1 12-14 22 22 0 0 1 9-2 26 26 0 0 1 24 16l16 37h108l17-37a26 26 0 0 1 23-16 23 23 0 0 1 10 2 23 23 0 0 1 12 14 27 27 0 0 1-1 20z m177 5h-107v185c0 14-11 26-24 26s-25-12-25-26v-205h0c1-16 9-23 25-23h131a22 22 0 0 1 0 43z m226 4l-78 98 60 61c13 13 15 31 6 40a20 20 0 0 1-14 6 38 38 0 0 1-26-12l-85-86v71c0 17-12 32-26 32-15 0-27-15-27-32v-195c0-17 12-31 27-31 14 0 26 14 26 31v56l24 23 74-93a33 33 0 0 1 25-13 22 22 0 0 1 14 4 23 23 0 0 1 8 18 34 34 0 0 1-8 22z m-518 129l37-82h-73z" horiz-adv-x="1086" />
</font>
</defs>
</svg>
